# xmcd
#
# Track frame offsets: 
#        150
#        16970
#        30612
#        46801
#        64205
#        81459
#        96036
#        116262
#        134096
#        149961
#        166741
#        179189
#        193048
#        209178
#        230642
#
# Disc length: 3243 seconds
#
# Revision: 0
# Processed by: cddbd v1.5.2PL0 Copyright (c) Steve Scherf et al.
# Submitted via: ExactAudioCopy v0.95b4
#
DISCID=e80ca90f
DTITLE=Billy Currington - iTunes Essentials
DYEAR=2011
DGENRE=Country
TTITLE0=That's How Country Boys Roll
TTITLE1=Pretty Good At Drinkin' Beer
TTITLE2=Good Directions
TTITLE3=People Are Crazy
TTITLE4=Let Me Down Easy
TTITLE5=I Got a Feelin'
TTITLE6=Must Be Doin' Somethin' Right
TTITLE7=Don't
TTITLE8=Party for Two (Country Version With Intro)
TTITLE9=Walk a Little Straighter
TTITLE10=Why Why Why
TTITLE11=Bad Day of Fishin'
TTITLE12=When She Gets Close to Me
TTITLE13=Swimmin' in Sunshine 
TTITLE14=Like My Dog
EXTD=
EXTT0=
EXTT1=
EXTT2=
EXTT3=
EXTT4=
EXTT5=
EXTT6=
EXTT7=
EXTT8=
EXTT9=
EXTT10=
EXTT11=
EXTT12=
EXTT13=
EXTT14=
PLAYORDER=
